<svg xmlns="http://www.w3.org/2000/svg" width="1000" height="318.57001" viewBox="0 0 1000 318.57001"><path d="M306.925 159.121C303.478-4.046 86.48-64.905 2.902 88.06a711.841 711.841 0 0 0 12.517 8.934c-6.35 13.378-10.657 27.028-12.97 40.724C.862 146.65 0 155.857 0 165.198 0 249.82 68.795 318.57 153.508 318.57c84.712 0 153.372-68.614 153.372-153.372.045-2.04.045-4.081.045-6.077zM37.867 186.467c-1.996 16.553-.726 21.723-.726 23.718l-3.718 1.315c-1.452-2.72-4.898-12.38-6.485-25.305-4.037-49.34 29.658-93.828 80.994-102.172 47.027-6.893 92.104 22.312 102.58 63.172l-3.719 1.315c-1.133-1.134-3.038-4.445-10.203-11.655-56.823-56.868-146.025-30.838-158.723 49.612Zm146.07 27.618c-7.618 10.93-20.135 18.004-34.375 18.004-23.173 0-41.857-18.684-41.857-41.858 0-21.994 17.142-40.134 38.864-41.721 13.514-.59 26.167 6.757 32.108 18.548 6.485 12.788 4.172 28.479-6.032 39.136a739.425 739.425 0 0 0 11.292 7.89zm87.343 1.587c-22.176 50.202-67.752 76.55-116.412 75.824-93.374-4.625-120.584-112.375-58.138-151.24l2.721 2.721c-.997 1.451-4.761 4.308-10.52 15.69-6.758 13.833-8.935 27.619-8.073 36.28 4.898 75.235 110.335 90.654 146.615 16.1 46.256-101.991-76.369-205.75-185.117-126.48l-2.449-2.449c28.616-44.896 84.623-64.895 137.999-51.517C259.444 51.19 303.342 136.22 271.28 215.672zM455.852 99.26v70.79c0 28.208-17.278 49.205-48.796 49.205-31.517 0-48.796-20.997-48.796-49.204V99.26h25.623v68.794c0 17.142 8.072 26.892 23.173 26.892 14.966 0 23.174-9.795 23.174-26.892V99.26h25.622zm95.416 83.897c0 20.452-15.963 35.1-41.858 35.1h-40.86v-118h39.273c22.72 0 37.821 10.93 37.821 28.48 0 13.378-6.167 21.45-15.555 25.305 12.698 4.762 21.179 13.288 21.179 29.115zm-57.005-60.315v24.897h13.514c7.891 0 13.379-4.626 13.379-12.517 0-7.89-5.488-12.516-13.379-12.516h-13.514v.136zm14.24 72.831c10.93 0 17.278-5.034 17.278-14.83 0-9.795-6.167-14.828-17.278-14.828h-14.24v29.658h14.24zm52.832-95.415h25.623v118h-25.623v-118zm87.615 47.798c20.271 7.03 30.656 16.1 30.656 34.375 0 24.443-18.684 38.003-40.86 38.003-20.452 0-36.098-9.07-42.719-25.895l20.453-15.101c3.719 10.657 13.378 17.142 23.037 17.142 8.48 0 14.512-4.626 14.512-12.108 0-7.03-4.625-11.519-21.45-17.55-18.276-6.621-31.79-15.691-31.79-35.237 0-18.865 15.691-33.241 38.411-33.241 18.14 0 32.107 7.21 38.683 21.586l-20.452 14.104c-3.9-8.798-9.932-13.65-19.274-13.65-7.755 0-13.514 4.172-13.514 10.203.136 6.848 6.62 11.02 24.307 17.37zm157.998 11.202c0 34.692-25.033 60.994-60.134 60.994-35.962 0-60.133-25.758-60.133-56.958 0-20.272 7.89-34.965 19.545-44.443l-4.036-4.036c8.934-9.206 25.305-16.552 44.624-16.552 35.1 0 60.134 26.62 60.134 60.995zm-26.076 0c0-21.315-13.515-36.688-34.103-36.688-11.927 0-20.86 4.625-26.348 10.52l4.036 4.037c-6.168 5.17-11.79 12.516-11.79 25.486 0 17.823 12.652 33.514 34.102 33.514 20.725-.182 34.103-15.555 34.103-36.87zm62.174-34.693v27.346h50.065v19.545h-50.065v46.756h-25.623V100.258h80.858v24.307h-55.235zm156.954 0h-33.105v93.647h-25.622v-93.647H908.03v-24.307h91.924v24.307h.045z"/></svg>